<svg width="289" height="96" viewBox="0 0 289 96" fill="none" xmlns="http://www.w3.org/2000/svg">
<path d="M43.7812 22.3125V49.8125C43.7812 53.6458 43.0521 56.9792 41.5938 59.8125C40.1354 62.625 37.9479 64.8021 35.0312 66.3438C32.1146 67.8646 28.4583 68.625 24.0625 68.625C17.7708 68.625 12.9688 67.0104 9.65625 63.7812C6.34375 60.5521 4.6875 55.9896 4.6875 50.0938V22.3125H17.0938V49.125C17.0938 52.3542 17.6979 54.6979 18.9062 56.1562C20.1146 57.6146 21.8958 58.3438 24.25 58.3438C25.9375 58.3438 27.3125 58.0312 28.375 57.4062C29.4375 56.7604 30.2083 55.75 30.6875 54.375C31.1875 53 31.4375 51.2292 31.4375 49.0625V22.3125H43.7812ZM74.8125 31.9688C78.4583 31.9688 81.4375 33 83.75 35.0625C86.0625 37.125 87.2188 40.4271 87.2188 44.9688V68H75V48.6875C75 46.3333 74.6562 44.5625 73.9688 43.375C73.3021 42.1667 72.2188 41.5625 70.7188 41.5625C68.4062 41.5625 66.8542 42.5104 66.0625 44.4062C65.2708 46.2812 64.875 48.9792 64.875 52.5V68H52.6562V32.5938H61.875L63.5312 37.2812H64C64.75 36.1562 65.6458 35.1979 66.6875 34.4062C67.7292 33.6146 68.9271 33.0104 70.2812 32.5938C71.6354 32.1771 73.1458 31.9688 74.8125 31.9688ZM107.812 32.5938V68H95.5938V32.5938H107.812ZM101.75 18.3438C103.5 18.3438 105.021 18.7083 106.312 19.4375C107.625 20.1667 108.281 21.6146 108.281 23.7812C108.281 25.8854 107.625 27.3125 106.312 28.0625C105.021 28.7917 103.5 29.1562 101.75 29.1562C99.9583 29.1562 98.4271 28.7917 97.1562 28.0625C95.9062 27.3125 95.2812 25.8854 95.2812 23.7812C95.2812 21.6146 95.9062 20.1667 97.1562 19.4375C98.4271 18.7083 99.9583 18.3438 101.75 18.3438Z" fill="#13AE19"/>
<path d="M132.031 33.125C132.719 33.125 133.438 33.1667 134.188 33.25C134.938 33.3125 135.604 33.4062 136.188 33.5312L135.531 38.3438C134.969 38.1979 134.344 38.0833 133.656 38C132.969 37.9167 132.323 37.875 131.719 37.875C130.344 37.875 129.042 38.1562 127.812 38.7188C126.604 39.2604 125.542 40.0521 124.625 41.0938C123.708 42.1146 122.99 43.3542 122.469 44.8125C121.948 46.25 121.688 47.8542 121.688 49.625V68H116.469V33.75H120.781L121.344 40.0625H121.562C122.271 38.7917 123.125 37.6354 124.125 36.5938C125.125 35.5312 126.281 34.6875 127.594 34.0625C128.927 33.4375 130.406 33.125 132.031 33.125ZM147.844 33.75V68H142.656V33.75H147.844ZM145.312 20.9375C146.167 20.9375 146.896 21.2188 147.5 21.7812C148.125 22.3229 148.438 23.1771 148.438 24.3438C148.438 25.4896 148.125 26.3438 147.5 26.9062C146.896 27.4688 146.167 27.75 145.312 27.75C144.417 27.75 143.667 27.4688 143.062 26.9062C142.479 26.3438 142.188 25.4896 142.188 24.3438C142.188 23.1771 142.479 22.3229 143.062 21.7812C143.667 21.2188 144.417 20.9375 145.312 20.9375ZM171.031 68.625C166.698 68.625 163.26 67.1458 160.719 64.1875C158.198 61.2292 156.938 56.8333 156.938 51C156.938 45.1042 158.229 40.6562 160.812 37.6562C163.396 34.6354 166.833 33.125 171.125 33.125C172.938 33.125 174.521 33.3646 175.875 33.8438C177.229 34.3229 178.396 34.9688 179.375 35.7812C180.354 36.5729 181.177 37.4792 181.844 38.5H182.219C182.135 37.8542 182.052 36.9688 181.969 35.8438C181.885 34.7188 181.844 33.8021 181.844 33.0938V19.375H187.031V68H182.844L182.062 63.125H181.844C181.198 64.1458 180.375 65.0729 179.375 65.9062C178.396 66.7396 177.219 67.4062 175.844 67.9062C174.49 68.3854 172.885 68.625 171.031 68.625ZM171.844 64.3125C175.51 64.3125 178.104 63.2708 179.625 61.1875C181.146 59.1042 181.906 56.0104 181.906 51.9062V50.9688C181.906 46.6146 181.177 43.2708 179.719 40.9375C178.281 38.6042 175.656 37.4375 171.844 37.4375C168.656 37.4375 166.271 38.6667 164.688 41.125C163.104 43.5625 162.312 46.8958 162.312 51.125C162.312 55.3333 163.094 58.5833 164.656 60.875C166.24 63.1667 168.635 64.3125 171.844 64.3125ZM211.219 33.125C214.135 33.125 216.635 33.7708 218.719 35.0625C220.802 36.3542 222.396 38.1667 223.5 40.5C224.604 42.8125 225.156 45.5208 225.156 48.625V51.8438H201.5C201.562 55.8646 202.562 58.9271 204.5 61.0312C206.438 63.1354 209.167 64.1875 212.688 64.1875C214.854 64.1875 216.771 63.9896 218.438 63.5938C220.104 63.1979 221.833 62.6146 223.625 61.8438V66.4062C221.896 67.1771 220.177 67.7396 218.469 68.0938C216.781 68.4479 214.781 68.625 212.469 68.625C209.177 68.625 206.302 67.9583 203.844 66.625C201.406 65.2708 199.51 63.2917 198.156 60.6875C196.802 58.0833 196.125 54.8958 196.125 51.125C196.125 47.4375 196.74 44.25 197.969 41.5625C199.219 38.8542 200.969 36.7708 203.219 35.3125C205.49 33.8542 208.156 33.125 211.219 33.125ZM211.156 37.375C208.385 37.375 206.177 38.2812 204.531 40.0938C202.885 41.9062 201.906 44.4375 201.594 47.6875H219.719C219.698 45.6458 219.375 43.8542 218.75 42.3125C218.146 40.75 217.219 39.5417 215.969 38.6875C214.719 37.8125 213.115 37.375 211.156 37.375ZM256.125 58.625C256.125 60.8125 255.573 62.6562 254.469 64.1562C253.385 65.6354 251.823 66.75 249.781 67.5C247.76 68.25 245.344 68.625 242.531 68.625C240.135 68.625 238.062 68.4375 236.312 68.0625C234.562 67.6875 233.031 67.1562 231.719 66.4688V61.6875C233.115 62.375 234.781 63 236.719 63.5625C238.656 64.125 240.635 64.4062 242.656 64.4062C245.615 64.4062 247.76 63.9271 249.094 62.9688C250.427 62.0104 251.094 60.7083 251.094 59.0625C251.094 58.125 250.823 57.3021 250.281 56.5938C249.76 55.8646 248.875 55.1667 247.625 54.5C246.375 53.8125 244.646 53.0625 242.438 52.25C240.25 51.4167 238.354 50.5938 236.75 49.7812C235.167 48.9479 233.938 47.9375 233.062 46.75C232.208 45.5625 231.781 44.0208 231.781 42.125C231.781 39.2292 232.948 37.0104 235.281 35.4688C237.635 33.9062 240.719 33.125 244.531 33.125C246.594 33.125 248.521 33.3333 250.312 33.75C252.125 34.1458 253.812 34.6875 255.375 35.375L253.625 39.5312C252.208 38.9271 250.698 38.4167 249.094 38C247.49 37.5833 245.854 37.375 244.188 37.375C241.792 37.375 239.948 37.7708 238.656 38.5625C237.385 39.3542 236.75 40.4375 236.75 41.8125C236.75 42.875 237.042 43.75 237.625 44.4375C238.229 45.125 239.188 45.7708 240.5 46.375C241.812 46.9792 243.542 47.6875 245.688 48.5C247.833 49.2917 249.688 50.1146 251.25 50.9688C252.812 51.8021 254.01 52.8229 254.844 54.0312C255.698 55.2188 256.125 56.75 256.125 58.625Z" fill="#1E1E1E"/>
</svg>
