<svg width="430" height="240" viewBox="0 0 430 240" fill="none" xmlns="http://www.w3.org/2000/svg">
<rect width="430" height="240" fill="white"/>
<path d="M136.781 94.3125V121.812C136.781 125.646 136.052 128.979 134.594 131.812C133.135 134.625 130.948 136.802 128.031 138.344C125.115 139.865 121.458 140.625 117.062 140.625C110.771 140.625 105.969 139.01 102.656 135.781C99.3438 132.552 97.6875 127.99 97.6875 122.094V94.3125H110.094V121.125C110.094 124.354 110.698 126.698 111.906 128.156C113.115 129.615 114.896 130.344 117.25 130.344C118.938 130.344 120.312 130.031 121.375 129.406C122.438 128.76 123.208 127.75 123.688 126.375C124.188 125 124.438 123.229 124.438 121.062V94.3125H136.781ZM167.812 103.969C171.458 103.969 174.438 105 176.75 107.062C179.062 109.125 180.219 112.427 180.219 116.969V140H168V120.688C168 118.333 167.656 116.562 166.969 115.375C166.302 114.167 165.219 113.562 163.719 113.562C161.406 113.562 159.854 114.51 159.062 116.406C158.271 118.281 157.875 120.979 157.875 124.5V140H145.656V104.594H154.875L156.531 109.281H157C157.75 108.156 158.646 107.198 159.688 106.406C160.729 105.615 161.927 105.01 163.281 104.594C164.635 104.177 166.146 103.969 167.812 103.969ZM200.812 104.594V140H188.594V104.594H200.812ZM194.75 90.3438C196.5 90.3438 198.021 90.7083 199.312 91.4375C200.625 92.1667 201.281 93.6146 201.281 95.7812C201.281 97.8854 200.625 99.3125 199.312 100.062C198.021 100.792 196.5 101.156 194.75 101.156C192.958 101.156 191.427 100.792 190.156 100.062C188.906 99.3125 188.281 97.8854 188.281 95.7812C188.281 93.6146 188.906 92.1667 190.156 91.4375C191.427 90.7083 192.958 90.3438 194.75 90.3438Z" fill="#13AE19"/>
<path d="M225.031 105.125C225.719 105.125 226.438 105.167 227.188 105.25C227.938 105.312 228.604 105.406 229.188 105.531L228.531 110.344C227.969 110.198 227.344 110.083 226.656 110C225.969 109.917 225.323 109.875 224.719 109.875C223.344 109.875 222.042 110.156 220.812 110.719C219.604 111.26 218.542 112.052 217.625 113.094C216.708 114.115 215.99 115.354 215.469 116.812C214.948 118.25 214.688 119.854 214.688 121.625V140H209.469V105.75H213.781L214.344 112.062H214.562C215.271 110.792 216.125 109.635 217.125 108.594C218.125 107.531 219.281 106.688 220.594 106.062C221.927 105.438 223.406 105.125 225.031 105.125ZM240.844 105.75V140H235.656V105.75H240.844ZM238.312 92.9375C239.167 92.9375 239.896 93.2188 240.5 93.7812C241.125 94.3229 241.438 95.1771 241.438 96.3438C241.438 97.4896 241.125 98.3438 240.5 98.9062C239.896 99.4688 239.167 99.75 238.312 99.75C237.417 99.75 236.667 99.4688 236.062 98.9062C235.479 98.3438 235.188 97.4896 235.188 96.3438C235.188 95.1771 235.479 94.3229 236.062 93.7812C236.667 93.2188 237.417 92.9375 238.312 92.9375ZM264.031 140.625C259.698 140.625 256.26 139.146 253.719 136.188C251.198 133.229 249.938 128.833 249.938 123C249.938 117.104 251.229 112.656 253.812 109.656C256.396 106.635 259.833 105.125 264.125 105.125C265.938 105.125 267.521 105.365 268.875 105.844C270.229 106.323 271.396 106.969 272.375 107.781C273.354 108.573 274.177 109.479 274.844 110.5H275.219C275.135 109.854 275.052 108.969 274.969 107.844C274.885 106.719 274.844 105.802 274.844 105.094V91.375H280.031V140H275.844L275.062 135.125H274.844C274.198 136.146 273.375 137.073 272.375 137.906C271.396 138.74 270.219 139.406 268.844 139.906C267.49 140.385 265.885 140.625 264.031 140.625ZM264.844 136.312C268.51 136.312 271.104 135.271 272.625 133.188C274.146 131.104 274.906 128.01 274.906 123.906V122.969C274.906 118.615 274.177 115.271 272.719 112.938C271.281 110.604 268.656 109.438 264.844 109.438C261.656 109.438 259.271 110.667 257.688 113.125C256.104 115.562 255.312 118.896 255.312 123.125C255.312 127.333 256.094 130.583 257.656 132.875C259.24 135.167 261.635 136.312 264.844 136.312ZM304.219 105.125C307.135 105.125 309.635 105.771 311.719 107.062C313.802 108.354 315.396 110.167 316.5 112.5C317.604 114.812 318.156 117.521 318.156 120.625V123.844H294.5C294.562 127.865 295.562 130.927 297.5 133.031C299.438 135.135 302.167 136.188 305.688 136.188C307.854 136.188 309.771 135.99 311.438 135.594C313.104 135.198 314.833 134.615 316.625 133.844V138.406C314.896 139.177 313.177 139.74 311.469 140.094C309.781 140.448 307.781 140.625 305.469 140.625C302.177 140.625 299.302 139.958 296.844 138.625C294.406 137.271 292.51 135.292 291.156 132.688C289.802 130.083 289.125 126.896 289.125 123.125C289.125 119.438 289.74 116.25 290.969 113.562C292.219 110.854 293.969 108.771 296.219 107.312C298.49 105.854 301.156 105.125 304.219 105.125ZM304.156 109.375C301.385 109.375 299.177 110.281 297.531 112.094C295.885 113.906 294.906 116.438 294.594 119.688H312.719C312.698 117.646 312.375 115.854 311.75 114.312C311.146 112.75 310.219 111.542 308.969 110.688C307.719 109.812 306.115 109.375 304.156 109.375ZM349.125 130.625C349.125 132.812 348.573 134.656 347.469 136.156C346.385 137.635 344.823 138.75 342.781 139.5C340.76 140.25 338.344 140.625 335.531 140.625C333.135 140.625 331.062 140.438 329.312 140.062C327.562 139.688 326.031 139.156 324.719 138.469V133.688C326.115 134.375 327.781 135 329.719 135.562C331.656 136.125 333.635 136.406 335.656 136.406C338.615 136.406 340.76 135.927 342.094 134.969C343.427 134.01 344.094 132.708 344.094 131.062C344.094 130.125 343.823 129.302 343.281 128.594C342.76 127.865 341.875 127.167 340.625 126.5C339.375 125.812 337.646 125.062 335.438 124.25C333.25 123.417 331.354 122.594 329.75 121.781C328.167 120.948 326.938 119.938 326.062 118.75C325.208 117.562 324.781 116.021 324.781 114.125C324.781 111.229 325.948 109.01 328.281 107.469C330.635 105.906 333.719 105.125 337.531 105.125C339.594 105.125 341.521 105.333 343.312 105.75C345.125 106.146 346.812 106.688 348.375 107.375L346.625 111.531C345.208 110.927 343.698 110.417 342.094 110C340.49 109.583 338.854 109.375 337.188 109.375C334.792 109.375 332.948 109.771 331.656 110.562C330.385 111.354 329.75 112.438 329.75 113.812C329.75 114.875 330.042 115.75 330.625 116.438C331.229 117.125 332.188 117.771 333.5 118.375C334.812 118.979 336.542 119.688 338.688 120.5C340.833 121.292 342.688 122.115 344.25 122.969C345.812 123.802 347.01 124.823 347.844 126.031C348.698 127.219 349.125 128.75 349.125 130.625Z" fill="#1E1E1E"/>
</svg>
