<svg width="430" height="75" viewBox="0 0 430 75" fill="none" xmlns="http://www.w3.org/2000/svg">
<g clip-path="url(#clip0_7_59)">
<rect width="430" height="75" fill="white"/>
<path d="M136.781 15.3125V42.8125C136.781 46.6458 136.052 49.9792 134.594 52.8125C133.135 55.625 130.948 57.8021 128.031 59.3438C125.115 60.8646 121.458 61.625 117.062 61.625C110.771 61.625 105.969 60.0104 102.656 56.7812C99.3438 53.5521 97.6875 48.9896 97.6875 43.0938V15.3125H110.094V42.125C110.094 45.3542 110.698 47.6979 111.906 49.1562C113.115 50.6146 114.896 51.3438 117.25 51.3438C118.938 51.3438 120.312 51.0312 121.375 50.4062C122.438 49.7604 123.208 48.75 123.688 47.375C124.188 46 124.438 44.2292 124.438 42.0625V15.3125H136.781ZM167.812 24.9688C171.458 24.9688 174.438 26 176.75 28.0625C179.062 30.125 180.219 33.4271 180.219 37.9688V61H168V41.6875C168 39.3333 167.656 37.5625 166.969 36.375C166.302 35.1667 165.219 34.5625 163.719 34.5625C161.406 34.5625 159.854 35.5104 159.062 37.4062C158.271 39.2812 157.875 41.9792 157.875 45.5V61H145.656V25.5938H154.875L156.531 30.2812H157C157.75 29.1562 158.646 28.1979 159.688 27.4062C160.729 26.6146 161.927 26.0104 163.281 25.5938C164.635 25.1771 166.146 24.9688 167.812 24.9688ZM200.812 25.5938V61H188.594V25.5938H200.812ZM194.75 11.3438C196.5 11.3438 198.021 11.7083 199.312 12.4375C200.625 13.1667 201.281 14.6146 201.281 16.7812C201.281 18.8854 200.625 20.3125 199.312 21.0625C198.021 21.7917 196.5 22.1562 194.75 22.1562C192.958 22.1562 191.427 21.7917 190.156 21.0625C188.906 20.3125 188.281 18.8854 188.281 16.7812C188.281 14.6146 188.906 13.1667 190.156 12.4375C191.427 11.7083 192.958 11.3438 194.75 11.3438Z" fill="#13AE19"/>
<path d="M225.031 26.125C225.719 26.125 226.438 26.1667 227.188 26.25C227.938 26.3125 228.604 26.4062 229.188 26.5312L228.531 31.3438C227.969 31.1979 227.344 31.0833 226.656 31C225.969 30.9167 225.323 30.875 224.719 30.875C223.344 30.875 222.042 31.1562 220.812 31.7188C219.604 32.2604 218.542 33.0521 217.625 34.0938C216.708 35.1146 215.99 36.3542 215.469 37.8125C214.948 39.25 214.688 40.8542 214.688 42.625V61H209.469V26.75H213.781L214.344 33.0625H214.562C215.271 31.7917 216.125 30.6354 217.125 29.5938C218.125 28.5312 219.281 27.6875 220.594 27.0625C221.927 26.4375 223.406 26.125 225.031 26.125ZM240.844 26.75V61H235.656V26.75H240.844ZM238.312 13.9375C239.167 13.9375 239.896 14.2188 240.5 14.7812C241.125 15.3229 241.438 16.1771 241.438 17.3438C241.438 18.4896 241.125 19.3438 240.5 19.9062C239.896 20.4688 239.167 20.75 238.312 20.75C237.417 20.75 236.667 20.4688 236.062 19.9062C235.479 19.3438 235.188 18.4896 235.188 17.3438C235.188 16.1771 235.479 15.3229 236.062 14.7812C236.667 14.2188 237.417 13.9375 238.312 13.9375ZM264.031 61.625C259.698 61.625 256.26 60.1458 253.719 57.1875C251.198 54.2292 249.938 49.8333 249.938 44C249.938 38.1042 251.229 33.6562 253.812 30.6562C256.396 27.6354 259.833 26.125 264.125 26.125C265.938 26.125 267.521 26.3646 268.875 26.8438C270.229 27.3229 271.396 27.9688 272.375 28.7812C273.354 29.5729 274.177 30.4792 274.844 31.5H275.219C275.135 30.8542 275.052 29.9688 274.969 28.8438C274.885 27.7188 274.844 26.8021 274.844 26.0938V12.375H280.031V61H275.844L275.062 56.125H274.844C274.198 57.1458 273.375 58.0729 272.375 58.9062C271.396 59.7396 270.219 60.4062 268.844 60.9062C267.49 61.3854 265.885 61.625 264.031 61.625ZM264.844 57.3125C268.51 57.3125 271.104 56.2708 272.625 54.1875C274.146 52.1042 274.906 49.0104 274.906 44.9062V43.9688C274.906 39.6146 274.177 36.2708 272.719 33.9375C271.281 31.6042 268.656 30.4375 264.844 30.4375C261.656 30.4375 259.271 31.6667 257.688 34.125C256.104 36.5625 255.312 39.8958 255.312 44.125C255.312 48.3333 256.094 51.5833 257.656 53.875C259.24 56.1667 261.635 57.3125 264.844 57.3125ZM304.219 26.125C307.135 26.125 309.635 26.7708 311.719 28.0625C313.802 29.3542 315.396 31.1667 316.5 33.5C317.604 35.8125 318.156 38.5208 318.156 41.625V44.8438H294.5C294.562 48.8646 295.562 51.9271 297.5 54.0312C299.438 56.1354 302.167 57.1875 305.688 57.1875C307.854 57.1875 309.771 56.9896 311.438 56.5938C313.104 56.1979 314.833 55.6146 316.625 54.8438V59.4062C314.896 60.1771 313.177 60.7396 311.469 61.0938C309.781 61.4479 307.781 61.625 305.469 61.625C302.177 61.625 299.302 60.9583 296.844 59.625C294.406 58.2708 292.51 56.2917 291.156 53.6875C289.802 51.0833 289.125 47.8958 289.125 44.125C289.125 40.4375 289.74 37.25 290.969 34.5625C292.219 31.8542 293.969 29.7708 296.219 28.3125C298.49 26.8542 301.156 26.125 304.219 26.125ZM304.156 30.375C301.385 30.375 299.177 31.2812 297.531 33.0938C295.885 34.9062 294.906 37.4375 294.594 40.6875H312.719C312.698 38.6458 312.375 36.8542 311.75 35.3125C311.146 33.75 310.219 32.5417 308.969 31.6875C307.719 30.8125 306.115 30.375 304.156 30.375ZM349.125 51.625C349.125 53.8125 348.573 55.6562 347.469 57.1562C346.385 58.6354 344.823 59.75 342.781 60.5C340.76 61.25 338.344 61.625 335.531 61.625C333.135 61.625 331.062 61.4375 329.312 61.0625C327.562 60.6875 326.031 60.1562 324.719 59.4688V54.6875C326.115 55.375 327.781 56 329.719 56.5625C331.656 57.125 333.635 57.4062 335.656 57.4062C338.615 57.4062 340.76 56.9271 342.094 55.9688C343.427 55.0104 344.094 53.7083 344.094 52.0625C344.094 51.125 343.823 50.3021 343.281 49.5938C342.76 48.8646 341.875 48.1667 340.625 47.5C339.375 46.8125 337.646 46.0625 335.438 45.25C333.25 44.4167 331.354 43.5938 329.75 42.7812C328.167 41.9479 326.938 40.9375 326.062 39.75C325.208 38.5625 324.781 37.0208 324.781 35.125C324.781 32.2292 325.948 30.0104 328.281 28.4688C330.635 26.9062 333.719 26.125 337.531 26.125C339.594 26.125 341.521 26.3333 343.312 26.75C345.125 27.1458 346.812 27.6875 348.375 28.375L346.625 32.5312C345.208 31.9271 343.698 31.4167 342.094 31C340.49 30.5833 338.854 30.375 337.188 30.375C334.792 30.375 332.948 30.7708 331.656 31.5625C330.385 32.3542 329.75 33.4375 329.75 34.8125C329.75 35.875 330.042 36.75 330.625 37.4375C331.229 38.125 332.188 38.7708 333.5 39.375C334.812 39.9792 336.542 40.6875 338.688 41.5C340.833 42.2917 342.688 43.1146 344.25 43.9688C345.812 44.8021 347.01 45.8229 347.844 47.0312C348.698 48.2188 349.125 49.75 349.125 51.625Z" fill="#1E1E1E"/>
</g>
<defs>
<clipPath id="clip0_7_59">
<rect width="430" height="75" fill="white"/>
</clipPath>
</defs>
</svg>
